<svg width="610" height="333" viewBox="0 0 610 333" fill="none" xmlns="http://www.w3.org/2000/svg">
<path d="M609.833 62.456L8.53784 0L2.51067e-05 82.1978L601.295 144.654L609.833 62.456Z" fill="#F26402"/>
<path d="M97.1247 40.1838L101.325 40.62L99.7477 55.8058L107.529 56.6141L107.126 60.4913L95.1447 59.2468L97.1247 40.1838ZM117.698 42.3207L121.172 42.6815L127.485 62.6059L122.746 62.1137L121.523 57.9043L114.119 57.1352L112.11 61.009L107.479 60.5279L117.698 42.3207ZM118.738 48.0351L115.807 53.7181L120.465 54.202L118.738 48.0351ZM140.322 49.3789C140.026 48.9127 139.592 48.5501 139.02 48.2911C138.468 48.0161 137.932 47.8515 137.411 47.7974C137.106 47.7657 136.788 47.769 136.457 47.8072C136.127 47.8455 135.81 47.9305 135.506 48.0622C135.204 48.176 134.95 48.3492 134.744 48.5818C134.538 48.8145 134.417 49.1103 134.38 49.4693C134.32 50.0437 134.49 50.5059 134.889 50.8558C135.288 51.2057 135.799 51.5219 136.423 51.8044C137.065 52.0888 137.752 52.3778 138.483 52.6715C139.215 52.9652 139.883 53.3431 140.488 53.8051C141.111 54.269 141.604 54.8554 141.966 55.5643C142.328 56.2732 142.451 57.1841 142.335 58.297C142.225 59.3561 141.932 60.26 141.455 61.0088C140.978 61.7576 140.371 62.3568 139.635 62.8065C138.917 63.2581 138.096 63.5629 137.172 63.721C136.267 63.8809 135.32 63.9096 134.333 63.8071C133.094 63.6784 131.965 63.3706 130.945 62.8837C129.925 62.3967 129.001 61.6839 128.174 60.7451L131.504 57.7707C131.875 58.3899 132.367 58.8945 132.979 59.2848C133.612 59.6589 134.278 59.8823 134.978 59.955C135.319 59.9905 135.664 59.99 136.012 59.9536C136.381 59.9011 136.708 59.8081 136.994 59.6745C137.298 59.5428 137.544 59.3597 137.731 59.1252C137.937 58.8925 138.057 58.6057 138.093 58.2646C138.152 57.6902 137.975 57.2182 137.56 56.8484C137.164 56.4626 136.647 56.1186 136.007 55.8162C135.367 55.5139 134.673 55.206 133.925 54.8925C133.178 54.5789 132.492 54.1902 131.869 53.7263C131.246 53.2624 130.744 52.6841 130.362 51.9913C129.998 51.3003 129.871 50.4253 129.981 49.3663C130.088 48.3431 130.378 47.4661 130.854 46.7353C131.347 46.0063 131.952 45.416 132.67 44.9645C133.407 44.5148 134.227 44.21 135.133 44.05C136.041 43.8721 136.961 43.8316 137.895 43.9286C138.972 44.0405 139.997 44.3012 140.97 44.7107C141.944 45.1203 142.797 45.726 143.53 46.5279L140.322 49.3789ZM154.81 46.1755L161.918 46.9138C162.744 46.9996 163.563 47.1482 164.376 47.3596C165.208 47.5549 165.938 47.8666 166.565 48.2946C167.194 48.7046 167.682 49.2452 168.029 49.9163C168.377 50.5875 168.497 51.4436 168.389 52.4847C168.277 53.5617 167.878 54.4275 167.194 55.0821C166.528 55.7206 165.686 56.1412 164.667 56.3438L164.662 56.3977C165.281 56.5527 165.828 56.7909 166.302 57.1124C166.797 57.4177 167.202 57.7955 167.518 58.2456C167.854 58.6797 168.093 59.1762 168.234 59.7352C168.376 60.2942 168.415 60.8789 168.351 61.4892C168.247 62.4944 167.944 63.3157 167.442 63.953C166.943 64.5725 166.33 65.0532 165.605 65.3952C164.88 65.7372 164.078 65.9532 163.197 66.0432C162.335 66.135 161.482 66.1372 160.638 66.0495L152.83 65.2385L154.81 46.1755ZM158.219 54.2316L161.262 54.5476C161.585 54.5812 161.903 54.5779 162.215 54.5378C162.546 54.4996 162.845 54.4127 163.113 54.2773C163.381 54.1418 163.601 53.9469 163.773 53.6926C163.962 53.4401 164.076 53.1254 164.116 52.7485C164.157 52.3536 164.1 52.0211 163.947 51.7512C163.813 51.4652 163.619 51.2364 163.365 51.0648C163.111 50.8932 162.816 50.7628 162.48 50.6735C162.147 50.5663 161.819 50.4959 161.495 50.4623L158.641 50.1659L158.219 54.2316ZM157.4 62.1207L161.169 62.5122C161.492 62.5458 161.819 62.5434 162.15 62.5052C162.498 62.4688 162.816 62.3748 163.104 62.2233C163.392 62.0718 163.632 61.8608 163.823 61.5904C164.032 61.3218 164.159 60.9811 164.201 60.5683C164.248 60.1195 164.169 59.7484 163.963 59.4549C163.778 59.1453 163.522 58.901 163.196 58.722C162.87 58.543 162.512 58.406 162.123 58.3112C161.733 58.2163 161.368 58.1511 161.027 58.1157L157.85 57.7857L157.4 62.1207ZM170.256 57.4142C170.415 55.8884 170.81 54.5324 171.441 53.346C172.09 52.1615 172.917 51.186 173.922 50.4195C174.929 49.6351 176.085 49.0747 177.39 48.7385C178.695 48.4024 180.092 48.3116 181.582 48.4664C183.072 48.6211 184.421 48.9971 185.629 49.5943C186.837 50.1915 187.853 50.9775 188.677 51.9521C189.503 52.9088 190.103 54.0325 190.477 55.3233C190.869 56.6159 190.986 58.0251 190.827 59.5509C190.669 61.0766 190.265 62.4318 189.616 63.6162C188.984 64.8026 188.165 65.788 187.158 66.5725C186.154 67.339 184.999 67.8903 183.694 68.2265C182.389 68.5627 180.991 68.6534 179.501 68.4987C178.011 68.3439 176.663 67.968 175.454 67.3707C174.246 66.7735 173.229 65.9966 172.403 65.0399C171.579 64.0652 170.971 62.9316 170.579 61.639C170.206 60.3482 170.098 58.94 170.256 57.4142ZM174.618 57.8673C174.525 58.7648 174.574 59.6045 174.765 60.3863C174.975 61.1521 175.312 61.8403 175.775 62.4508C176.24 63.0434 176.815 63.5295 177.501 63.9092C178.206 64.2908 179.007 64.5282 179.904 64.6215C180.802 64.7147 181.625 64.646 182.375 64.4154C183.142 64.1867 183.815 63.8302 184.391 63.3457C184.969 62.8433 185.431 62.2382 185.777 61.5302C186.143 60.8061 186.372 59.9953 186.465 59.0978C186.557 58.2183 186.498 57.3866 186.289 56.6029C186.098 55.821 185.77 55.1338 185.306 54.5412C184.843 53.9307 184.259 53.4346 183.555 53.053C182.869 52.6733 182.077 52.4368 181.179 52.3436C180.282 52.2504 179.449 52.3181 178.682 52.5468C177.932 52.7774 177.268 53.1439 176.69 53.6463C176.113 54.1307 175.642 54.735 175.277 55.459C174.929 56.185 174.71 56.9877 174.618 57.8673ZM197.975 54.4147L192.536 53.8498L192.922 50.1341L208 51.7003L207.614 55.4159L202.175 54.851L200.581 70.1983L196.381 69.7621L197.975 54.4147ZM210.294 51.9386L223.245 53.2838L222.843 57.161L214.092 56.2521L213.723 59.8062L221.989 60.6648L221.586 64.542L213.32 63.6834L212.917 67.5607L222.153 68.5199L221.75 72.3972L208.314 71.0016L210.294 51.9386ZM227.254 53.7002L231.455 54.1365L229.877 69.3223L237.659 70.1305L237.256 74.0077L225.274 72.7632L227.254 53.7002ZM241.716 55.2023L245.916 55.6386L244.339 70.8244L252.12 71.6326L251.718 75.5099L239.736 74.2653L241.716 55.2023ZM262.29 57.3393L265.763 57.7001L272.076 77.6245L267.337 77.1322L266.114 72.9229L258.71 72.1538L256.702 76.0275L252.071 75.5465L262.29 57.3393ZM263.329 63.0537L260.398 68.7367L265.056 69.2205L263.329 63.0537ZM284.913 64.3975C284.617 63.9313 284.183 63.5687 283.611 63.3097C283.059 63.0346 282.523 62.8701 282.002 62.816C281.697 62.7843 281.379 62.7876 281.049 62.8258C280.718 62.8641 280.401 62.949 280.097 63.0807C279.795 63.1945 279.541 63.3677 279.335 63.6004C279.13 63.833 279.008 64.1289 278.971 64.4879C278.911 65.0623 279.081 65.5244 279.48 65.8743C279.879 66.2242 280.391 66.5404 281.014 66.823C281.656 67.1073 282.343 67.3964 283.074 67.6901C283.806 67.9838 284.474 68.3617 285.08 68.8237C285.703 69.2876 286.195 69.874 286.557 70.5829C286.919 71.2918 287.042 72.2027 286.926 73.3156C286.816 74.3746 286.523 75.2786 286.046 76.0274C285.569 76.7761 284.962 77.3754 284.226 77.8251C283.508 78.2767 282.687 78.5815 281.763 78.7396C280.858 78.8995 279.911 78.9282 278.924 78.8257C277.686 78.697 276.556 78.3892 275.536 77.9022C274.517 77.4153 273.593 76.7024 272.765 75.7637L276.095 72.7893C276.466 73.4084 276.958 73.9131 277.57 74.3033C278.203 74.6775 278.869 74.9009 279.569 74.9736C279.91 75.009 280.255 75.0086 280.603 74.9722C280.972 74.9197 281.299 74.8267 281.585 74.6931C281.889 74.5614 282.135 74.3783 282.322 74.1437C282.528 73.9111 282.649 73.6242 282.684 73.2832C282.744 72.7088 282.566 72.2367 282.151 71.867C281.755 71.4812 281.238 71.1371 280.598 70.8348C279.958 70.5325 279.264 70.2245 278.516 69.911C277.769 69.5975 277.083 69.2088 276.46 68.7449C275.837 68.281 275.335 67.7027 274.953 67.0098C274.59 66.3189 274.463 65.4439 274.573 64.3848C274.679 63.3617 274.97 62.4847 275.445 61.7539C275.938 61.0249 276.543 60.4346 277.262 59.983C277.998 59.5333 278.819 59.2285 279.724 59.0686C280.632 58.8907 281.552 58.8502 282.486 58.9472C283.563 59.059 284.588 59.3197 285.561 59.7293C286.535 60.1389 287.388 60.7446 288.122 61.5465L284.913 64.3975ZM299.401 61.1941L305.702 61.8485C307.228 62.007 308.655 62.3276 309.984 62.8103C311.33 63.2949 312.475 63.9763 313.418 64.8544C314.363 65.7146 315.068 66.7858 315.534 68.0679C316.017 69.3519 316.169 70.8645 315.988 72.6057C315.828 74.1494 315.39 75.4828 314.674 76.606C313.979 77.7131 313.095 78.6192 312.024 79.3244C310.955 80.0117 309.753 80.4946 308.417 80.7732C307.082 81.0519 305.705 81.1175 304.287 80.9702L297.421 80.2571L299.401 61.1941ZM302.024 76.8161L304.205 77.0427C305.175 77.1433 306.082 77.1378 306.929 77.0262C307.793 76.9163 308.553 76.6687 309.21 76.2834C309.869 75.8801 310.407 75.3281 310.825 74.6276C311.262 73.911 311.537 73.0142 311.648 71.9372C311.745 71.0038 311.65 70.1774 311.362 69.458C311.093 68.7225 310.686 68.0996 310.14 67.5894C309.595 67.0791 308.929 66.6743 308.144 66.375C307.378 66.0596 306.556 65.8562 305.676 65.7649L303.199 65.5076L302.024 76.8161ZM319.993 63.3329L332.944 64.6781L332.542 68.5554L323.791 67.6464L323.422 71.2006L331.688 72.0591L331.285 75.9364L323.019 75.0778L322.616 78.955L331.852 79.9143L331.449 83.7915L318.013 82.3959L319.993 63.3329ZM344.759 65.9053L351.84 66.6408C352.827 66.7434 353.751 66.9301 354.612 67.2009C355.473 67.4718 356.203 67.8651 356.803 68.381C357.422 68.8808 357.881 69.5272 358.18 70.3203C358.499 71.0973 358.599 72.0512 358.482 73.182C358.366 74.2949 358.09 75.2097 357.652 75.9263C357.215 76.6429 356.659 77.193 355.984 77.5765C355.309 77.96 354.531 78.2057 353.648 78.3137C352.768 78.4037 351.825 78.3965 350.82 78.2921L347.751 77.9732L346.979 85.4046L342.779 84.9683L344.759 65.9053ZM348.12 74.4191L350.92 74.71C351.297 74.7491 351.66 74.7505 352.008 74.7141C352.375 74.6796 352.701 74.5956 352.987 74.462C353.293 74.3123 353.542 74.1023 353.733 73.8319C353.944 73.5453 354.073 73.1777 354.12 72.729C354.17 72.2443 354.093 71.8463 353.89 71.5348C353.706 71.2073 353.443 70.9441 353.101 70.7453C352.777 70.5483 352.401 70.4095 351.974 70.3288C351.549 70.2302 351.139 70.1604 350.744 70.1194L348.59 69.8957L348.12 74.4191ZM361.88 67.6837L366.08 68.1199L364.503 83.3057L372.284 84.114L371.882 87.9912L359.9 86.7467L361.88 67.6837ZM382.454 69.8206L385.927 70.1814L392.24 90.1058L387.501 89.6136L386.278 85.4042L378.874 84.6351L376.866 88.5089L372.235 88.0278L382.454 69.8206ZM383.493 75.535L380.562 81.218L385.22 81.7019L383.493 75.535ZM384.806 64.7307L390.299 65.3012L385.238 68.6946L381.684 68.3254L384.806 64.7307ZM405.077 76.8788C404.781 76.4126 404.347 76.05 403.775 75.791C403.223 75.516 402.687 75.3514 402.166 75.2973C401.861 75.2656 401.543 75.2689 401.213 75.3071C400.882 75.3454 400.565 75.4304 400.261 75.5621C399.959 75.6759 399.705 75.8491 399.499 76.0817C399.294 76.3144 399.172 76.6102 399.135 76.9692C399.075 77.5436 399.245 78.0058 399.644 78.3557C400.043 78.7056 400.555 79.0218 401.178 79.3043C401.82 79.5887 402.507 79.8777 403.238 80.1714C403.97 80.4651 404.638 80.843 405.244 81.305C405.867 81.7689 406.359 82.3553 406.721 83.0642C407.083 83.7731 407.206 84.684 407.09 85.7969C406.98 86.856 406.687 87.7599 406.21 88.5087C405.733 89.2575 405.126 89.8567 404.39 90.3064C403.672 90.758 402.851 91.0628 401.927 91.2209C401.022 91.3808 400.075 91.4095 399.088 91.307C397.85 91.1783 396.72 90.8705 395.7 90.3836C394.68 89.8966 393.757 89.1838 392.929 88.245L396.259 85.2706C396.63 85.8897 397.122 86.3944 397.734 86.7847C398.367 87.1588 399.033 87.3822 399.733 87.4549C400.074 87.4904 400.419 87.4899 400.767 87.4535C401.136 87.401 401.463 87.308 401.749 87.1744C402.053 87.0427 402.299 86.8596 402.486 86.6251C402.692 86.3924 402.813 86.1056 402.848 85.7645C402.908 85.1901 402.73 84.7181 402.315 84.3483C401.919 83.9625 401.402 83.6185 400.762 83.3161C400.122 83.0138 399.428 82.7059 398.68 82.3923C397.933 82.0788 397.247 81.6901 396.624 81.2262C396.001 80.7623 395.499 80.184 395.117 79.4912C394.754 78.8002 394.627 77.9252 394.737 76.8662C394.843 75.843 395.134 74.966 395.609 74.2352C396.102 73.5062 396.707 72.9159 397.426 72.4644C398.162 72.0147 398.983 71.7098 399.888 71.5499C400.796 71.372 401.716 71.3315 402.65 71.4285C403.727 71.5404 404.752 71.8011 405.725 72.2106C406.699 72.6202 407.552 73.2259 408.285 74.0278L405.077 76.8788ZM414.901 76.9467L409.462 76.3817L409.848 72.6661L424.926 74.2322L424.54 77.9479L419.101 77.383L417.507 92.7303L413.307 92.294L414.901 76.9467ZM427.005 74.4482L431.206 74.8845L429.226 93.9475L425.025 93.5112L427.005 74.4482ZM446.978 81.5304C446.617 80.9849 446.146 80.5459 445.564 80.2132C444.999 79.8824 444.322 79.676 443.532 79.594C442.742 79.5119 441.991 79.5881 441.277 79.8224C440.581 80.0586 439.953 80.4288 439.392 80.933C438.852 81.4212 438.399 82.0273 438.033 82.7514C437.686 83.4773 437.466 84.28 437.375 85.1596C437.282 86.0571 437.331 86.8968 437.522 87.6787C437.732 88.4444 438.051 89.1307 438.478 89.7375C438.907 90.3264 439.428 90.8069 440.043 91.1792C440.675 91.5533 441.368 91.7796 442.122 91.8579C442.984 91.9474 443.765 91.8471 444.467 91.5571C445.168 91.2671 445.768 90.8213 446.266 90.2199L449.495 93.1952C448.57 94.2421 447.46 94.9705 446.165 95.3804C444.871 95.7903 443.568 95.9271 442.258 95.791C440.768 95.6363 439.419 95.2603 438.211 94.6631C437.003 94.0659 435.986 93.2889 435.16 92.3322C434.336 91.3576 433.728 90.2239 433.336 88.9313C432.962 87.6406 432.855 86.2323 433.013 84.7065C433.172 83.1808 433.566 81.8247 434.198 80.6384C434.847 79.4539 435.674 78.4784 436.679 77.7119C437.686 76.9274 438.842 76.3671 440.147 76.0309C441.452 75.6947 442.849 75.604 444.339 75.7587C444.877 75.8146 445.428 75.9263 445.991 76.0937C446.574 76.2449 447.133 76.4572 447.667 76.7304C448.219 77.0054 448.737 77.3495 449.22 77.7626C449.703 78.1757 450.124 78.6639 450.483 79.2273L446.978 81.5304ZM451.445 86.6211C451.604 85.0953 451.999 83.7393 452.63 82.5529C453.279 81.3684 454.106 80.3929 455.111 79.6264C456.118 78.8419 457.274 78.2816 458.579 77.9454C459.884 77.6092 461.281 77.5185 462.771 77.6732C464.261 77.828 465.61 78.204 466.818 78.8012C468.026 79.3984 469.042 80.1843 469.866 81.159C470.692 82.1157 471.292 83.2394 471.666 84.5302C472.058 85.8228 472.175 87.232 472.016 88.7577C471.858 90.2835 471.454 91.6386 470.805 92.8231C470.173 94.0095 469.354 94.9949 468.347 95.7793C467.342 96.5459 466.188 97.0972 464.883 97.4334C463.578 97.7696 462.18 97.8603 460.69 97.7056C459.2 97.5508 457.851 97.1748 456.643 96.5776C455.435 95.9804 454.418 95.2034 453.592 94.2467C452.768 93.2721 452.16 92.1385 451.768 90.8458C451.394 89.5551 451.287 88.1468 451.445 86.6211ZM455.807 87.0741C455.714 87.9716 455.763 88.8113 455.954 89.5932C456.164 90.359 456.501 91.0471 456.964 91.6577C457.429 92.2502 458.004 92.7364 458.69 93.1161C459.395 93.4977 460.195 93.7351 461.093 93.8283C461.991 93.9216 462.814 93.8529 463.564 93.6223C464.331 93.3936 465.004 93.037 465.58 92.5526C466.158 92.0502 466.62 91.445 466.966 90.737C467.332 90.013 467.561 89.2022 467.654 88.3047C467.746 87.4251 467.687 86.5935 467.478 85.8097C467.287 85.0279 466.959 84.3406 466.495 83.7481C466.032 83.1375 465.448 82.6415 464.744 82.2599C464.058 81.8802 463.266 81.6437 462.368 81.5505C461.471 81.4572 460.638 81.525 459.871 81.7537C459.121 81.9843 458.457 82.3507 457.878 82.8531C457.302 83.3376 456.831 83.9418 456.465 84.6659C456.118 85.3918 455.898 86.1946 455.807 87.0741ZM474.846 94.277L478.723 94.6798L475.511 102.021L472.064 101.663L474.846 94.277Z" fill="black"/>
<path d="M599.506 126.968L5.28076 153.12L8.91429 235.68L603.139 209.528L599.506 126.968Z" fill="#FCFD00"/>
<path d="M120.641 185.518L133.649 184.946L133.82 188.84L125.031 189.227L125.188 192.797L133.491 192.431L133.662 196.326L125.36 196.691L125.531 200.585L134.807 200.177L134.978 204.072L121.484 204.665L120.641 185.518ZM137.513 184.776L143.246 184.524L151.972 197.471L152.026 197.468L151.441 184.163L155.659 183.977L156.502 203.124L150.985 203.367L142.029 190.105L141.975 190.107L142.575 203.737L138.356 203.923L137.513 184.776ZM157.672 183.889L162.486 183.677L167.771 196.017L167.825 196.014L172.087 183.254L176.603 183.056L169.549 202.55L166.168 202.699L157.672 183.889ZM178.001 192.586C177.933 191.054 178.125 189.654 178.575 188.388C179.043 187.121 179.717 186.035 180.599 185.129C181.479 184.205 182.54 183.481 183.782 182.956C185.023 182.432 186.392 182.137 187.889 182.071C189.385 182.005 190.775 182.179 192.057 182.592C193.34 183.005 194.461 183.633 195.419 184.476C196.376 185.301 197.135 186.325 197.695 187.547C198.272 188.768 198.595 190.144 198.662 191.677C198.73 193.209 198.529 194.609 198.061 195.876C197.611 197.142 196.946 198.237 196.065 199.161C195.184 200.067 194.122 200.782 192.881 201.306C191.64 201.831 190.271 202.126 188.774 202.192C187.278 202.258 185.888 202.084 184.606 201.671C183.323 201.257 182.203 200.638 181.245 199.813C180.287 198.97 179.519 197.938 178.941 196.717C178.382 195.496 178.068 194.119 178.001 192.586ZM182.382 192.393C182.421 193.295 182.593 194.118 182.897 194.863C183.218 195.59 183.652 196.221 184.2 196.757C184.746 197.275 185.387 197.671 186.122 197.946C186.874 198.22 187.701 198.337 188.603 198.297C189.504 198.258 190.309 198.069 191.016 197.731C191.742 197.391 192.355 196.94 192.854 196.376C193.352 195.794 193.72 195.128 193.958 194.377C194.213 193.607 194.321 192.771 194.281 191.87C194.242 190.986 194.062 190.172 193.74 189.428C193.436 188.682 193.011 188.051 192.464 187.533C191.917 186.997 191.267 186.592 190.514 186.318C189.78 186.043 188.962 185.926 188.06 185.965C187.159 186.005 186.345 186.194 185.619 186.533C184.912 186.872 184.309 187.332 183.81 187.914C183.311 188.478 182.934 189.144 182.679 189.914C182.442 190.684 182.343 191.51 182.382 192.393ZM201.271 181.97L205.489 181.784L206.161 197.037L213.976 196.693L214.148 200.587L202.113 201.117L201.271 181.97ZM217.021 185.016L211.558 185.256L211.393 181.524L226.538 180.858L226.702 184.59L221.239 184.83L221.918 200.245L217.699 200.431L217.021 185.016ZM245.343 191.817C245.393 192.953 245.268 194.006 244.967 194.977C244.667 195.947 244.19 196.799 243.535 197.533C242.899 198.265 242.085 198.852 241.093 199.293C240.101 199.734 238.947 199.984 237.631 200.042C236.296 200.1 235.116 199.953 234.089 199.601C233.062 199.249 232.19 198.736 231.474 198.063C230.776 197.39 230.235 196.583 229.85 195.642C229.465 194.702 229.248 193.663 229.198 192.528L228.68 180.764L232.899 180.578L233.41 192.18C233.436 192.775 233.55 193.321 233.753 193.817C233.973 194.314 234.263 194.743 234.622 195.107C234.981 195.452 235.399 195.723 235.878 195.919C236.373 196.096 236.9 196.172 237.459 196.147C238.018 196.123 238.528 196.001 238.988 195.782C239.447 195.545 239.84 195.239 240.166 194.863C240.492 194.469 240.734 194.016 240.892 193.503C241.068 192.99 241.143 192.435 241.117 191.84L240.607 180.239L244.825 180.053L245.343 191.817ZM248.726 179.881L256.136 179.555C257.109 179.512 258.033 179.571 258.907 179.731C259.798 179.873 260.579 180.155 261.247 180.577C261.934 180.98 262.483 181.552 262.895 182.293C263.324 183.014 263.563 183.934 263.612 185.052C263.672 186.404 263.371 187.573 262.71 188.56C262.048 189.528 261.046 190.169 259.705 190.48L264.929 198.352L259.872 198.575L255.533 191.098L253.45 191.189L253.787 198.843L249.568 199.028L248.726 179.881ZM253.293 187.62L255.781 187.51C256.16 187.493 256.556 187.467 256.97 187.431C257.401 187.376 257.785 187.277 258.122 187.136C258.458 186.977 258.728 186.748 258.932 186.45C259.153 186.151 259.253 185.74 259.23 185.218C259.208 184.731 259.092 184.348 258.881 184.068C258.67 183.788 258.408 183.583 258.095 183.452C257.782 183.303 257.425 183.211 257.026 183.174C256.627 183.137 256.239 183.127 255.86 183.144L253.101 183.265L253.293 187.62ZM272.563 178.832L276.052 178.679L285.224 197.459L280.464 197.669L278.636 193.685L271.199 194.012L269.782 198.139L265.13 198.343L272.563 178.832ZM274.431 184.332L272.367 190.384L277.045 190.178L274.431 184.332ZM295.978 182.489C295.617 182.072 295.134 181.777 294.53 181.605C293.944 181.414 293.389 181.33 292.866 181.353C292.56 181.366 292.246 181.416 291.924 181.503C291.603 181.589 291.302 181.72 291.02 181.895C290.738 182.052 290.513 182.26 290.344 182.521C290.174 182.781 290.098 183.091 290.114 183.452C290.139 184.029 290.375 184.461 290.821 184.749C291.267 185.036 291.819 185.274 292.478 185.461C293.155 185.648 293.876 185.833 294.643 186.016C295.41 186.199 296.126 186.475 296.793 186.843C297.478 187.21 298.051 187.718 298.513 188.366C298.975 189.014 299.231 189.897 299.28 191.015C299.327 192.079 299.169 193.016 298.807 193.827C298.446 194.637 297.934 195.319 297.272 195.872C296.628 196.424 295.86 196.847 294.97 197.139C294.098 197.43 293.166 197.597 292.174 197.641C290.93 197.696 289.768 197.557 288.688 197.225C287.607 196.894 286.589 196.324 285.632 195.517L288.488 192.086C288.947 192.644 289.507 193.071 290.171 193.367C290.851 193.644 291.543 193.767 292.246 193.736C292.589 193.721 292.93 193.67 293.269 193.583C293.626 193.477 293.936 193.336 294.199 193.162C294.48 192.987 294.696 192.77 294.848 192.511C295.017 192.25 295.094 191.949 295.079 191.606C295.053 191.029 294.808 190.588 294.343 190.284C293.895 189.96 293.333 189.696 292.655 189.491C291.978 189.286 291.247 189.083 290.461 188.883C289.675 188.683 288.94 188.399 288.256 188.032C287.571 187.664 286.989 187.166 286.51 186.537C286.049 185.907 285.795 185.06 285.748 183.996C285.703 182.969 285.861 182.059 286.224 181.266C286.604 180.472 287.117 179.799 287.761 179.247C288.423 178.694 289.19 178.272 290.062 177.981C290.934 177.671 291.838 177.496 292.776 177.455C293.858 177.407 294.91 177.515 295.933 177.777C296.956 178.039 297.89 178.512 298.733 179.198L295.978 182.489ZM309.838 177.192L316.166 176.913C317.699 176.846 319.158 176.953 320.543 177.235C321.946 177.517 323.179 178.023 324.241 178.753C325.302 179.465 326.157 180.421 326.806 181.62C327.473 182.819 327.845 184.293 327.922 186.042C327.99 187.593 327.753 188.976 327.21 190.192C326.685 191.389 325.944 192.415 324.988 193.27C324.031 194.107 322.913 194.762 321.633 195.234C320.353 195.705 319.001 195.973 317.577 196.035L310.681 196.339L309.838 177.192ZM314.728 192.259L316.919 192.162C317.892 192.12 318.79 191.981 319.61 191.746C320.449 191.51 321.165 191.154 321.758 190.676C322.35 190.18 322.801 189.555 323.111 188.801C323.439 188.028 323.579 187.1 323.531 186.019C323.49 185.081 323.274 184.278 322.883 183.608C322.509 182.92 322.015 182.364 321.4 181.94C320.786 181.515 320.068 181.212 319.247 181.032C318.443 180.832 317.6 180.752 316.716 180.791L314.228 180.9L314.728 192.259ZM330.521 176.281L343.529 175.709L343.7 179.603L334.911 179.99L335.068 183.56L343.371 183.195L343.542 187.089L335.24 187.454L335.411 191.349L344.687 190.94L344.859 194.835L331.364 195.429L330.521 176.281ZM368.136 179.612C367.699 179.125 367.168 178.76 366.543 178.517C365.936 178.272 365.236 178.168 364.443 178.203C363.65 178.238 362.917 178.423 362.245 178.76C361.592 179.096 361.025 179.554 360.545 180.135C360.082 180.698 359.723 181.364 359.468 182.134C359.23 182.903 359.131 183.729 359.17 184.613C359.21 185.514 359.382 186.338 359.685 187.083C360.006 187.809 360.423 188.441 360.934 188.979C361.445 189.498 362.031 189.897 362.694 190.175C363.374 190.452 364.093 190.574 364.85 190.541C365.716 190.503 366.474 190.289 367.125 189.899C367.776 189.509 368.304 188.98 368.708 188.312L372.339 190.78C371.578 191.952 370.587 192.835 369.367 193.431C368.147 194.026 366.879 194.353 365.563 194.411C364.066 194.477 362.677 194.303 361.394 193.89C360.111 193.477 358.991 192.858 358.034 192.033C357.075 191.19 356.307 190.158 355.73 188.937C355.17 187.715 354.857 186.338 354.789 184.805C354.722 183.273 354.913 181.874 355.363 180.607C355.831 179.34 356.506 178.254 357.387 177.348C358.268 176.424 359.329 175.7 360.57 175.176C361.812 174.651 363.181 174.356 364.677 174.291C365.218 174.267 365.779 174.296 366.361 174.379C366.96 174.443 367.544 174.571 368.112 174.763C368.698 174.954 369.261 175.218 369.8 175.555C370.338 175.893 370.827 176.314 371.264 176.819L368.136 179.612ZM373.302 183.991C373.235 182.458 373.426 181.059 373.876 179.793C374.345 178.526 375.019 177.439 375.901 176.533C376.781 175.609 377.842 174.885 379.084 174.361C380.325 173.837 381.694 173.542 383.19 173.476C384.687 173.41 386.076 173.584 387.359 173.997C388.642 174.41 389.762 175.038 390.721 175.881C391.678 176.706 392.437 177.729 392.996 178.951C393.574 180.172 393.897 181.549 393.964 183.081C394.031 184.614 393.831 186.014 393.363 187.281C392.913 188.547 392.248 189.642 391.367 190.566C390.486 191.472 389.424 192.187 388.183 192.711C386.941 193.235 385.572 193.53 384.076 193.596C382.58 193.662 381.19 193.489 379.907 193.075C378.625 192.662 377.505 192.043 376.547 191.218C375.589 190.375 374.821 189.343 374.243 188.122C373.683 186.9 373.37 185.523 373.302 183.991ZM377.684 183.798C377.723 184.699 377.895 185.523 378.199 186.268C378.52 186.995 378.954 187.626 379.501 188.162C380.048 188.68 380.689 189.076 381.423 189.351C382.176 189.625 383.003 189.742 383.905 189.702C384.806 189.662 385.611 189.473 386.318 189.135C387.044 188.796 387.656 188.345 388.155 187.781C388.654 187.199 389.022 186.532 389.26 185.781C389.515 185.011 389.623 184.176 389.583 183.274C389.544 182.391 389.364 181.577 389.042 180.832C388.738 180.087 388.313 179.455 387.766 178.937C387.219 178.402 386.569 177.997 385.816 177.723C385.081 177.448 384.263 177.33 383.362 177.37C382.46 177.41 381.647 177.599 380.921 177.938C380.213 178.276 379.61 178.736 379.112 179.318C378.613 179.882 378.236 180.549 377.981 181.319C377.744 182.088 377.645 182.914 377.684 183.798ZM396.41 173.382L402.792 173.101L407.75 185.401L407.805 185.399L411.69 172.709L418.045 172.429L418.888 191.577L414.669 191.762L414.023 177.077L413.969 177.08L409.585 191.986L406.367 192.128L400.879 177.656L400.825 177.658L401.472 192.343L397.253 192.529L396.41 173.382ZM421.894 172.26L426.113 172.074L426.956 191.221L422.737 191.407L421.894 172.26ZM429.951 171.906L436.279 171.627C437.812 171.56 439.27 171.667 440.656 171.949C442.059 172.231 443.292 172.736 444.353 173.466C445.414 174.178 446.269 175.134 446.918 176.334C447.585 177.533 447.957 179.007 448.034 180.756C448.102 182.306 447.865 183.69 447.323 184.906C446.797 186.103 446.057 187.129 445.101 187.984C444.144 188.821 443.026 189.475 441.746 189.947C440.466 190.419 439.114 190.686 437.69 190.749L430.793 191.053L429.951 171.906ZM434.841 186.973L437.031 186.876C438.005 186.833 438.902 186.694 439.723 186.46C440.561 186.224 441.277 185.867 441.87 185.39C442.463 184.894 442.914 184.269 443.224 183.515C443.551 182.742 443.691 181.814 443.643 180.732C443.602 179.795 443.386 178.991 442.996 178.322C442.622 177.634 442.128 177.078 441.513 176.653C440.898 176.229 440.18 175.926 439.36 175.746C438.556 175.546 437.712 175.466 436.829 175.505L434.341 175.614L434.841 186.973ZM456.773 170.725L460.261 170.572L469.433 189.352L464.674 189.561L462.845 185.577L455.408 185.905L453.991 190.032L449.34 190.236L456.773 170.725ZM458.64 176.225L456.576 182.277L461.255 182.071L458.64 176.225Z" fill="black"/>
<path d="M577.127 250.358H35.7871V332.998H577.127V250.358Z" fill="#3459F2"/>
<path d="M146.147 291.083L138.946 280.093H144.197L148.258 287.266L152.562 280.093H157.57L150.369 291.083V299.258H146.147V291.083ZM167 280.093H174.417C175.391 280.093 176.312 280.192 177.178 280.39C178.062 280.571 178.829 280.887 179.479 281.338C180.147 281.771 180.67 282.366 181.049 283.124C181.446 283.864 181.644 284.794 181.644 285.913C181.644 287.266 181.292 288.421 180.589 289.378C179.885 290.316 178.856 290.912 177.503 291.164L182.375 299.258H177.313L173.307 291.597H171.222V299.258H167V280.093ZM171.222 288.024H173.713C174.092 288.024 174.489 288.015 174.904 287.997C175.337 287.961 175.725 287.88 176.068 287.753C176.411 287.609 176.691 287.392 176.907 287.104C177.142 286.815 177.259 286.409 177.259 285.886C177.259 285.398 177.16 285.01 176.961 284.722C176.763 284.433 176.51 284.216 176.203 284.072C175.897 283.909 175.545 283.801 175.148 283.747C174.751 283.693 174.363 283.666 173.984 283.666H171.222V288.024ZM184.715 280.093H197.736V283.991H188.938V287.564H197.249V291.462H188.938V295.36H198.223V299.258H184.715V280.093ZM211.078 284.776C210.735 284.343 210.266 284.027 209.671 283.828C209.093 283.612 208.543 283.503 208.019 283.503C207.712 283.503 207.397 283.54 207.072 283.612C206.747 283.684 206.44 283.801 206.151 283.964C205.863 284.108 205.628 284.307 205.448 284.559C205.267 284.812 205.177 285.119 205.177 285.48C205.177 286.057 205.393 286.499 205.827 286.806C206.26 287.113 206.801 287.374 207.451 287.591C208.118 287.808 208.831 288.024 209.589 288.241C210.347 288.457 211.051 288.764 211.701 289.161C212.368 289.558 212.919 290.09 213.352 290.758C213.785 291.426 214.002 292.319 214.002 293.438C214.002 294.503 213.803 295.432 213.406 296.226C213.009 297.02 212.468 297.679 211.782 298.202C211.114 298.726 210.329 299.114 209.427 299.366C208.543 299.619 207.604 299.745 206.612 299.745C205.366 299.745 204.211 299.556 203.147 299.177C202.082 298.798 201.089 298.184 200.169 297.336L203.174 294.034C203.607 294.611 204.148 295.062 204.798 295.387C205.466 295.694 206.151 295.847 206.855 295.847C207.198 295.847 207.541 295.811 207.884 295.739C208.245 295.649 208.561 295.523 208.831 295.36C209.12 295.198 209.346 294.99 209.508 294.737C209.689 294.485 209.779 294.187 209.779 293.844C209.779 293.267 209.553 292.816 209.102 292.491C208.669 292.148 208.118 291.859 207.451 291.624C206.783 291.39 206.061 291.155 205.285 290.921C204.509 290.686 203.787 290.37 203.12 289.973C202.452 289.576 201.892 289.053 201.441 288.403C201.008 287.753 200.792 286.896 200.792 285.831C200.792 284.803 200.99 283.9 201.387 283.124C201.802 282.348 202.344 281.699 203.011 281.175C203.697 280.652 204.482 280.264 205.366 280.011C206.251 279.741 207.162 279.605 208.1 279.605C209.183 279.605 210.23 279.759 211.241 280.066C212.251 280.372 213.163 280.887 213.975 281.609L211.078 284.776ZM220.856 283.828H215.388V280.093H230.547V283.828H225.079V299.258H220.856V283.828ZM231.663 289.675C231.663 288.141 231.916 286.752 232.421 285.507C232.945 284.261 233.666 283.206 234.587 282.339C235.507 281.455 236.599 280.778 237.862 280.309C239.125 279.84 240.506 279.605 242.004 279.605C243.502 279.605 244.882 279.84 246.146 280.309C247.409 280.778 248.501 281.455 249.421 282.339C250.341 283.206 251.054 284.261 251.56 285.507C252.083 286.752 252.345 288.141 252.345 289.675C252.345 291.209 252.083 292.599 251.56 293.844C251.054 295.089 250.341 296.154 249.421 297.038C248.501 297.905 247.409 298.572 246.146 299.042C244.882 299.511 243.502 299.745 242.004 299.745C240.506 299.745 239.125 299.511 237.862 299.042C236.599 298.572 235.507 297.905 234.587 297.038C233.666 296.154 232.945 295.089 232.421 293.844C231.916 292.599 231.663 291.209 231.663 289.675ZM236.049 289.675C236.049 290.578 236.184 291.408 236.455 292.166C236.743 292.906 237.149 293.555 237.673 294.115C238.196 294.656 238.819 295.08 239.541 295.387C240.28 295.694 241.102 295.847 242.004 295.847C242.906 295.847 243.718 295.694 244.44 295.387C245.18 295.08 245.812 294.656 246.335 294.115C246.858 293.555 247.256 292.906 247.526 292.166C247.815 291.408 247.959 290.578 247.959 289.675C247.959 288.791 247.815 287.97 247.526 287.212C247.256 286.454 246.858 285.804 246.335 285.263C245.812 284.704 245.18 284.27 244.44 283.964C243.718 283.657 242.906 283.503 242.004 283.503C241.102 283.503 240.28 283.657 239.541 283.964C238.819 284.27 238.196 284.704 237.673 285.263C237.149 285.804 236.743 286.454 236.455 287.212C236.184 287.97 236.049 288.791 236.049 289.675ZM264.689 284.776C264.347 284.343 263.877 284.027 263.282 283.828C262.704 283.612 262.154 283.503 261.631 283.503C261.324 283.503 261.008 283.54 260.683 283.612C260.358 283.684 260.051 283.801 259.763 283.964C259.474 284.108 259.239 284.307 259.059 284.559C258.878 284.812 258.788 285.119 258.788 285.48C258.788 286.057 259.005 286.499 259.438 286.806C259.871 287.113 260.412 287.374 261.062 287.591C261.73 287.808 262.443 288.024 263.201 288.241C263.959 288.457 264.662 288.764 265.312 289.161C265.98 289.558 266.53 290.09 266.963 290.758C267.396 291.426 267.613 292.319 267.613 293.438C267.613 294.503 267.414 295.432 267.017 296.226C266.62 297.02 266.079 297.679 265.393 298.202C264.726 298.726 263.941 299.114 263.038 299.366C262.154 299.619 261.215 299.745 260.223 299.745C258.978 299.745 257.823 299.556 256.758 299.177C255.693 298.798 254.701 298.184 253.78 297.336L256.785 294.034C257.218 294.611 257.76 295.062 258.409 295.387C259.077 295.694 259.763 295.847 260.467 295.847C260.809 295.847 261.152 295.811 261.495 295.739C261.856 295.649 262.172 295.523 262.443 295.36C262.731 295.198 262.957 294.99 263.119 294.737C263.3 294.485 263.39 294.187 263.39 293.844C263.39 293.267 263.164 292.816 262.713 292.491C262.28 292.148 261.73 291.859 261.062 291.624C260.394 291.39 259.672 291.155 258.896 290.921C258.12 290.686 257.399 290.37 256.731 289.973C256.063 289.576 255.504 289.053 255.053 288.403C254.619 287.753 254.403 286.896 254.403 285.831C254.403 284.803 254.601 283.9 254.998 283.124C255.413 282.348 255.955 281.699 256.623 281.175C257.308 280.652 258.093 280.264 258.978 280.011C259.862 279.741 260.773 279.605 261.712 279.605C262.795 279.605 263.841 279.759 264.852 280.066C265.862 280.372 266.774 280.887 267.586 281.609L264.689 284.776ZM278.769 280.093H285.103C286.637 280.093 288.09 280.264 289.462 280.607C290.851 280.95 292.06 281.509 293.089 282.285C294.118 283.043 294.93 284.036 295.525 285.263C296.139 286.49 296.446 287.979 296.446 289.73C296.446 291.282 296.148 292.653 295.552 293.844C294.975 295.017 294.19 296.01 293.197 296.822C292.205 297.616 291.059 298.22 289.759 298.636C288.46 299.051 287.098 299.258 285.672 299.258H278.769V280.093ZM282.992 295.36H285.185C286.159 295.36 287.061 295.261 287.892 295.062C288.74 294.864 289.471 294.539 290.084 294.088C290.698 293.619 291.176 293.014 291.519 292.274C291.88 291.516 292.06 290.596 292.06 289.513C292.06 288.575 291.88 287.762 291.519 287.077C291.176 286.373 290.707 285.795 290.111 285.344C289.516 284.893 288.812 284.559 288 284.343C287.206 284.108 286.367 283.991 285.482 283.991H282.992V295.36ZM299.472 280.093H312.493V283.991H303.695V287.564H312.005V291.462H303.695V295.36H312.98V299.258H299.472V280.093ZM324.37 280.093H331.517C332.347 280.093 333.177 280.156 334.007 280.282C334.855 280.39 335.613 280.625 336.281 280.986C336.949 281.329 337.49 281.816 337.905 282.448C338.32 283.079 338.528 283.919 338.528 284.965C338.528 286.048 338.221 286.95 337.608 287.672C337.012 288.376 336.218 288.881 335.225 289.188V289.242C335.857 289.333 336.426 289.513 336.931 289.784C337.454 290.036 337.896 290.37 338.257 290.785C338.636 291.182 338.925 291.652 339.123 292.193C339.322 292.734 339.421 293.312 339.421 293.925C339.421 294.936 339.205 295.784 338.772 296.47C338.338 297.138 337.779 297.679 337.093 298.094C336.407 298.509 335.631 298.807 334.765 298.987C333.917 299.168 333.069 299.258 332.221 299.258H324.37V280.093ZM328.593 287.753H331.652C331.977 287.753 332.293 287.717 332.6 287.645C332.924 287.573 333.213 287.456 333.466 287.293C333.719 287.131 333.917 286.914 334.061 286.644C334.224 286.373 334.305 286.048 334.305 285.669C334.305 285.272 334.215 284.947 334.034 284.695C333.872 284.424 333.655 284.216 333.385 284.072C333.114 283.928 332.807 283.828 332.464 283.774C332.121 283.702 331.788 283.666 331.463 283.666H328.593V287.753ZM328.593 295.685H332.383C332.708 295.685 333.033 295.649 333.358 295.577C333.7 295.504 334.007 295.378 334.278 295.198C334.549 295.017 334.765 294.783 334.928 294.494C335.108 294.205 335.198 293.853 335.198 293.438C335.198 292.987 335.081 292.626 334.846 292.355C334.63 292.067 334.35 291.85 334.007 291.706C333.664 291.561 333.294 291.462 332.897 291.408C332.5 291.354 332.13 291.327 331.788 291.327H328.593V295.685ZM348.231 280.093H351.723L360.06 299.258H355.296L353.645 295.198H346.201L344.603 299.258H339.947L348.231 280.093ZM349.855 285.669L347.527 291.624H352.21L349.855 285.669ZM371.463 284.776C371.12 284.343 370.651 284.027 370.055 283.828C369.477 283.612 368.927 283.503 368.404 283.503C368.097 283.503 367.781 283.54 367.456 283.612C367.131 283.684 366.825 283.801 366.536 283.964C366.247 284.108 366.013 284.307 365.832 284.559C365.652 284.812 365.561 285.119 365.561 285.48C365.561 286.057 365.778 286.499 366.211 286.806C366.644 287.113 367.186 287.374 367.835 287.591C368.503 287.808 369.216 288.024 369.974 288.241C370.732 288.457 371.436 288.764 372.085 289.161C372.753 289.558 373.303 290.09 373.736 290.758C374.17 291.426 374.386 292.319 374.386 293.438C374.386 294.503 374.188 295.432 373.791 296.226C373.394 297.02 372.852 297.679 372.166 298.202C371.499 298.726 370.714 299.114 369.811 299.366C368.927 299.619 367.989 299.745 366.996 299.745C365.751 299.745 364.596 299.556 363.531 299.177C362.466 298.798 361.474 298.184 360.553 297.336L363.558 294.034C363.991 294.611 364.533 295.062 365.182 295.387C365.85 295.694 366.536 295.847 367.24 295.847C367.583 295.847 367.925 295.811 368.268 295.739C368.629 295.649 368.945 295.523 369.216 295.36C369.505 295.198 369.73 294.99 369.893 294.737C370.073 294.485 370.163 294.187 370.163 293.844C370.163 293.267 369.938 292.816 369.487 292.491C369.053 292.148 368.503 291.859 367.835 291.624C367.168 291.39 366.446 291.155 365.67 290.921C364.894 290.686 364.172 290.37 363.504 289.973C362.836 289.576 362.277 289.053 361.826 288.403C361.393 287.753 361.176 286.896 361.176 285.831C361.176 284.803 361.375 283.9 361.772 283.124C362.187 282.348 362.728 281.699 363.396 281.175C364.082 280.652 364.867 280.264 365.751 280.011C366.635 279.741 367.546 279.605 368.485 279.605C369.568 279.605 370.614 279.759 371.625 280.066C372.636 280.372 373.547 280.887 374.359 281.609L371.463 284.776ZM393.693 291.868C393.693 293.005 393.522 294.052 393.179 295.008C392.836 295.965 392.321 296.795 391.636 297.499C390.968 298.202 390.129 298.753 389.118 299.15C388.108 299.547 386.944 299.745 385.626 299.745C384.291 299.745 383.118 299.547 382.107 299.15C381.096 298.753 380.248 298.202 379.562 297.499C378.895 296.795 378.389 295.965 378.047 295.008C377.704 294.052 377.532 293.005 377.532 291.868V280.093H381.755V291.706C381.755 292.301 381.845 292.852 382.026 293.357C382.224 293.862 382.495 294.304 382.838 294.683C383.181 295.044 383.587 295.333 384.056 295.55C384.543 295.748 385.067 295.847 385.626 295.847C386.186 295.847 386.7 295.748 387.169 295.55C387.638 295.333 388.044 295.044 388.387 294.683C388.73 294.304 388.992 293.862 389.172 293.357C389.371 292.852 389.47 292.301 389.47 291.706V280.093H393.693V291.868ZM397.597 280.093H405.014C405.989 280.093 406.909 280.192 407.775 280.39C408.659 280.571 409.426 280.887 410.076 281.338C410.744 281.771 411.267 282.366 411.646 283.124C412.043 283.864 412.242 284.794 412.242 285.913C412.242 287.266 411.89 288.421 411.186 289.378C410.482 290.316 409.453 290.912 408.1 291.164L412.973 299.258H407.91L403.904 291.597H401.82V299.258H397.597V280.093ZM401.82 288.024H404.31C404.689 288.024 405.086 288.015 405.501 287.997C405.934 287.961 406.322 287.88 406.665 287.753C407.008 287.609 407.288 287.392 407.504 287.104C407.739 286.815 407.856 286.409 407.856 285.886C407.856 285.398 407.757 285.01 407.559 284.722C407.36 284.433 407.107 284.216 406.801 284.072C406.494 283.909 406.142 283.801 405.745 283.747C405.348 283.693 404.96 283.666 404.581 283.666H401.82V288.024ZM421.457 280.093H424.949L433.287 299.258H428.523L426.871 295.198H419.427L417.83 299.258H413.174L421.457 280.093ZM423.082 285.669L420.753 291.624H425.437L423.082 285.669Z" fill="black"/>
</svg>
