<svg width="149" height="57" viewBox="0 0 149 57" fill="none" xmlns="http://www.w3.org/2000/svg">
<path d="M51.5099 20.0301C51.7699 20.3001 52.0799 20.51 52.4499 20.66C52.8199 20.81 53.2199 20.88 53.6599 20.88C54.0999 20.88 54.4799 20.8 54.8399 20.64C55.1999 20.48 55.5299 20.21 55.7999 19.83L55.3599 19.5C55.2599 19.66 55.1399 19.79 54.9999 19.9C54.8599 20.01 54.7199 20.1 54.5699 20.18C54.4199 20.25 54.2699 20.31 54.1099 20.34C53.9499 20.38 53.7999 20.39 53.6499 20.39C53.2699 20.39 52.9399 20.3201 52.6299 20.1901C52.3299 20.0601 52.0699 19.88 51.8599 19.65C51.6499 19.42 51.4799 19.15 51.3699 18.84C51.2599 18.53 51.1999 18.2 51.1999 17.84C51.1999 17.48 51.2599 17.15 51.3699 16.84C51.4799 16.53 51.6499 16.2601 51.8599 16.0301C52.0699 15.8001 52.3299 15.62 52.6299 15.49C52.9299 15.36 53.2699 15.29 53.6499 15.29C53.9399 15.29 54.2299 15.35 54.5099 15.48C54.7899 15.61 55.0199 15.8 55.1999 16.08L55.6399 15.71C55.3799 15.38 55.0899 15.15 54.7499 15.01C54.4099 14.87 54.0399 14.8 53.6499 14.8C53.2099 14.8 52.8099 14.8801 52.4399 15.0301C52.0699 15.1801 51.7599 15.39 51.4999 15.66C51.2399 15.93 51.0399 16.25 50.8899 16.62C50.7399 16.99 50.6699 17.39 50.6699 17.84C50.6699 18.29 50.7399 18.69 50.8899 19.06C51.0399 19.43 51.2399 19.7501 51.4999 20.0201L51.5099 20.0301Z" fill="#FEEDB9"/>
<path d="M58.5801 13.4301H57.9301L57.0801 14.6001H57.4901L58.5801 13.4301Z" fill="#FEEDB9"/>
<path d="M57.83 14.96H57.29V20.73H57.83V14.96Z" fill="#FEEDB9"/>
<path d="M62.4901 17.85C62.6601 17.8 62.8202 17.71 62.9702 17.6C63.1102 17.49 63.2301 17.34 63.3301 17.16C63.4301 16.98 63.4702 16.75 63.4702 16.47C63.4702 16.22 63.4302 16.01 63.3502 15.83C63.2702 15.66 63.1702 15.51 63.0402 15.4C62.9102 15.29 62.7701 15.2 62.6201 15.14C62.4601 15.08 62.3102 15.04 62.1602 15.01C62.0102 14.98 61.8701 14.97 61.7401 14.96C61.6101 14.96 61.5101 14.96 61.4301 14.96H59.9102V20.73H60.4502V17.99H61.4502L63.0702 20.73H63.6801L62.0002 17.96C62.1602 17.94 62.3202 17.9 62.5002 17.85H62.4901ZM60.4301 17.51V15.45H61.5702C61.8502 15.45 62.0802 15.49 62.2602 15.56C62.4402 15.63 62.5702 15.72 62.6702 15.82C62.7702 15.92 62.8301 16.03 62.8701 16.15C62.9101 16.27 62.9202 16.38 62.9202 16.48C62.9202 16.58 62.9001 16.69 62.8701 16.81C62.8301 16.93 62.7702 17.04 62.6702 17.14C62.5702 17.24 62.4302 17.33 62.2602 17.4C62.0802 17.47 61.8502 17.51 61.5702 17.51H60.4301Z" fill="#FEEDB9"/>
<path d="M69.1801 19.9C69.0401 20.01 68.9001 20.1 68.7501 20.18C68.6001 20.25 68.4501 20.31 68.2901 20.34C68.1301 20.38 67.9801 20.39 67.8301 20.39C67.4501 20.39 67.1201 20.3201 66.8101 20.1901C66.5101 20.0601 66.2501 19.88 66.0401 19.65C65.8301 19.42 65.6601 19.15 65.5501 18.84C65.4401 18.53 65.3801 18.2 65.3801 17.84C65.3801 17.48 65.4401 17.15 65.5501 16.84C65.6601 16.53 65.8301 16.2601 66.0401 16.0301C66.2501 15.8001 66.5101 15.62 66.8101 15.49C67.1101 15.36 67.4501 15.29 67.8301 15.29C68.1201 15.29 68.4101 15.35 68.6901 15.48C68.9701 15.61 69.2001 15.8 69.3801 16.08L69.8201 15.71C69.5601 15.38 69.2701 15.15 68.9301 15.01C68.5901 14.87 68.2201 14.8 67.8301 14.8C67.3901 14.8 66.9901 14.8801 66.6201 15.0301C66.2501 15.1801 65.9401 15.39 65.6801 15.66C65.4201 15.93 65.2201 16.25 65.0701 16.62C64.9201 16.99 64.8501 17.39 64.8501 17.84C64.8501 18.29 64.9201 18.69 65.0701 19.06C65.2201 19.43 65.4201 19.7501 65.6801 20.0201C65.9401 20.2901 66.2501 20.5 66.6201 20.65C66.9901 20.8 67.3901 20.8701 67.8301 20.8701C68.2701 20.8701 68.6501 20.79 69.0101 20.63C69.3701 20.47 69.7001 20.2 69.9701 19.82L69.5301 19.49C69.4301 19.65 69.3101 19.78 69.1701 19.89L69.1801 19.9Z" fill="#FEEDB9"/>
<path d="M71.8101 20.16C71.9801 20.38 72.1901 20.55 72.4601 20.68C72.7301 20.81 73.0601 20.88 73.4501 20.88C73.8401 20.88 74.1701 20.81 74.4401 20.68C74.7101 20.55 74.9301 20.38 75.0901 20.16C75.2601 19.94 75.3701 19.69 75.4401 19.41C75.5101 19.13 75.5501 18.83 75.5501 18.52V14.96H75.0101V18.39C75.0101 18.6 74.9901 18.82 74.9501 19.05C74.9101 19.28 74.8401 19.5 74.7301 19.7C74.6201 19.9 74.4601 20.07 74.2601 20.2C74.0601 20.33 73.7901 20.4 73.4501 20.4C73.1101 20.4 72.8401 20.33 72.6401 20.2C72.4401 20.07 72.2801 19.9 72.1701 19.7C72.0601 19.5 71.9801 19.28 71.9501 19.05C71.9101 18.82 71.8901 18.6 71.8901 18.39V14.96H71.3501V18.52C71.3501 18.83 71.3901 19.13 71.4601 19.41C71.5301 19.69 71.6501 19.94 71.8101 20.16Z" fill="#FEEDB9"/>
<path d="M80.75 20.25H78.06V14.96H77.52V20.74H80.75V20.25Z" fill="#FEEDB9"/>
<path d="M86.8502 15.6799C86.5902 15.4099 86.2802 15.1999 85.9102 15.0499C85.5402 14.8999 85.1402 14.8199 84.7002 14.8199C84.2602 14.8199 83.8602 14.8999 83.4902 15.0499C83.1202 15.1999 82.8102 15.4099 82.5502 15.6799C82.2902 15.9499 82.0902 16.2699 81.9402 16.6399C81.7902 17.0099 81.7202 17.4099 81.7202 17.8599C81.7202 18.3099 81.7902 18.7099 81.9402 19.0799C82.0902 19.4499 82.2902 19.7699 82.5502 20.0399C82.8102 20.3099 83.1202 20.5199 83.4902 20.6699C83.8602 20.8199 84.2602 20.8899 84.7002 20.8899C85.1402 20.8899 85.5402 20.8199 85.9102 20.6699C86.2802 20.5199 86.5902 20.3099 86.8502 20.0399C87.1102 19.7699 87.3102 19.4499 87.4602 19.0799C87.6102 18.7099 87.6802 18.2999 87.6802 17.8599C87.6802 17.4199 87.6102 17.0099 87.4602 16.6399C87.3102 16.2699 87.1102 15.9499 86.8502 15.6799ZM86.9702 18.8599C86.8602 19.1699 86.6902 19.4399 86.4802 19.6699C86.2702 19.8999 86.0102 20.0799 85.7102 20.2099C85.4102 20.3399 85.0702 20.4099 84.6902 20.4099C84.3102 20.4099 83.9802 20.3399 83.6702 20.2099C83.3702 20.0799 83.1102 19.8999 82.9002 19.6699C82.6902 19.4399 82.5202 19.1699 82.4102 18.8599C82.3002 18.5499 82.2402 18.2199 82.2402 17.8599C82.2402 17.4999 82.3002 17.1699 82.4102 16.8599C82.5202 16.5499 82.6902 16.2799 82.9002 16.0499C83.1102 15.8199 83.3702 15.6399 83.6702 15.5099C83.9702 15.3799 84.3102 15.3099 84.6902 15.3099C85.0702 15.3099 85.4002 15.3799 85.7102 15.5099C86.0102 15.6399 86.2702 15.8199 86.4802 16.0499C86.6902 16.2799 86.8602 16.5499 86.9702 16.8599C87.0802 17.1699 87.1402 17.4999 87.1402 17.8599C87.1402 18.2199 87.0802 18.5499 86.9702 18.8599Z" fill="#FEEDB9"/>
<path d="M93.6099 20.03L91.7499 14.96H91.1699L93.3199 20.74H93.8599L96.0599 14.96H95.4799L93.6099 20.03Z" fill="#FEEDB9"/>
<path d="M97.8501 14.96H97.3101V20.73H97.8501V14.96Z" fill="#FEEDB9"/>
<path d="M100.46 18H101.46L103.08 20.74H103.69L102.01 17.97C102.17 17.95 102.33 17.91 102.51 17.86C102.68 17.81 102.84 17.72 102.99 17.61C103.13 17.5 103.25 17.35 103.35 17.17C103.45 16.99 103.49 16.76 103.49 16.48C103.49 16.23 103.45 16.02 103.37 15.84C103.29 15.67 103.19 15.52 103.06 15.41C102.93 15.3 102.79 15.21 102.64 15.15C102.48 15.09 102.33 15.05 102.18 15.02C102.03 14.99 101.89 14.98 101.76 14.97C101.63 14.97 101.53 14.97 101.45 14.97H99.9302V20.74H100.47V18H100.46ZM100.46 15.46H101.6C101.88 15.46 102.11 15.5 102.29 15.57C102.47 15.64 102.6 15.73 102.7 15.83C102.8 15.93 102.86 16.04 102.9 16.16C102.94 16.28 102.95 16.39 102.95 16.49C102.95 16.59 102.93 16.7 102.9 16.82C102.86 16.94 102.8 17.05 102.7 17.15C102.6 17.25 102.47 17.34 102.29 17.41C102.11 17.48 101.88 17.52 101.6 17.52H100.46V15.46Z" fill="#FEEDB9"/>
<path d="M104.6 15.45H106.58V20.74H107.11V15.45H109.09V14.96H104.6V15.45Z" fill="#FEEDB9"/>
<path d="M114.03 18.39C114.03 18.6 114.01 18.82 113.97 19.05C113.93 19.28 113.86 19.5 113.75 19.7C113.64 19.9 113.48 20.07 113.28 20.2C113.08 20.33 112.81 20.4 112.47 20.4C112.13 20.4 111.86 20.33 111.66 20.2C111.46 20.07 111.3 19.9 111.19 19.7C111.08 19.5 111 19.28 110.97 19.05C110.93 18.82 110.91 18.6 110.91 18.39V14.96H110.37V18.52C110.37 18.83 110.41 19.13 110.48 19.41C110.55 19.69 110.67 19.94 110.83 20.16C111 20.38 111.21 20.55 111.48 20.68C111.75 20.81 112.08 20.88 112.47 20.88C112.86 20.88 113.19 20.81 113.46 20.68C113.73 20.55 113.95 20.38 114.11 20.16C114.28 19.94 114.39 19.69 114.46 19.41C114.53 19.13 114.57 18.83 114.57 18.52V14.96H114.03V18.39Z" fill="#FEEDB9"/>
<path d="M117.93 20.6601C118.3 20.8101 118.7 20.8801 119.14 20.8801C119.58 20.8801 119.98 20.8101 120.35 20.6601C120.72 20.5101 121.03 20.3001 121.29 20.0301C121.55 19.7601 121.75 19.4401 121.9 19.0701C122.05 18.7001 122.12 18.2901 122.12 17.8501C122.12 17.4101 122.05 17.0001 121.9 16.6301C121.75 16.2601 121.55 15.9401 121.29 15.6701C121.03 15.4001 120.72 15.1901 120.35 15.0401C119.98 14.8901 119.58 14.8101 119.14 14.8101C118.7 14.8101 118.3 14.8901 117.93 15.0401C117.56 15.1901 117.25 15.4001 116.99 15.6701C116.73 15.9401 116.53 16.2601 116.38 16.6301C116.23 17.0001 116.16 17.4001 116.16 17.8501C116.16 18.3001 116.23 18.7001 116.38 19.0701C116.53 19.4401 116.73 19.7601 116.99 20.0301C117.25 20.3001 117.56 20.5101 117.93 20.6601ZM116.69 17.8501C116.69 17.4901 116.75 17.1601 116.86 16.8501C116.97 16.5401 117.14 16.2701 117.35 16.0401C117.56 15.8101 117.82 15.6301 118.12 15.5001C118.42 15.3701 118.76 15.3001 119.14 15.3001C119.52 15.3001 119.85 15.3701 120.16 15.5001C120.46 15.6301 120.72 15.8101 120.93 16.0401C121.14 16.2701 121.31 16.5401 121.42 16.8501C121.53 17.1601 121.59 17.4901 121.59 17.8501C121.59 18.2101 121.53 18.5401 121.42 18.8501C121.31 19.1601 121.14 19.4301 120.93 19.6601C120.72 19.8901 120.46 20.0701 120.16 20.2001C119.86 20.3301 119.52 20.4001 119.14 20.4001C118.76 20.4001 118.43 20.3301 118.12 20.2001C117.82 20.0701 117.56 19.8901 117.35 19.6601C117.14 19.4301 116.97 19.1601 116.86 18.8501C116.75 18.5401 116.69 18.2101 116.69 17.8501Z" fill="#FEEDB9"/>
<path d="M126.36 17.9399C126.14 17.8299 125.9 17.7299 125.64 17.6699C125.38 17.5999 125.14 17.5199 124.92 17.4299C124.7 17.3399 124.52 17.2199 124.37 17.0599C124.22 16.8999 124.15 16.6799 124.15 16.3999C124.15 16.2199 124.19 16.0499 124.26 15.9199C124.33 15.7799 124.42 15.6699 124.54 15.5799C124.66 15.4899 124.79 15.4199 124.95 15.3799C125.11 15.3299 125.27 15.3099 125.45 15.3099C125.7 15.3099 125.92 15.3599 126.1 15.4499C126.28 15.5399 126.44 15.6899 126.58 15.8799L127.04 15.5499C126.84 15.2899 126.61 15.0999 126.34 14.9899C126.07 14.8799 125.78 14.8199 125.46 14.8199C125.22 14.8199 124.98 14.8499 124.76 14.9199C124.54 14.9899 124.34 15.0899 124.17 15.2199C124 15.3499 123.86 15.5199 123.76 15.7199C123.66 15.9199 123.61 16.1499 123.61 16.3999C123.61 16.6699 123.65 16.8999 123.74 17.0799C123.82 17.2699 123.94 17.4199 124.08 17.5399C124.22 17.6599 124.38 17.7599 124.56 17.8399C124.74 17.9199 124.92 17.9799 125.11 18.0399C125.3 18.0999 125.48 18.1599 125.66 18.2199C125.84 18.2799 126 18.3499 126.14 18.4399C126.28 18.5199 126.39 18.6299 126.48 18.7599C126.56 18.8899 126.61 19.0599 126.61 19.2599C126.61 19.4299 126.58 19.5899 126.51 19.7299C126.44 19.8699 126.35 19.9899 126.23 20.0799C126.11 20.1799 125.98 20.2499 125.82 20.3099C125.66 20.3699 125.49 20.3899 125.31 20.3899C125.02 20.3899 124.76 20.3299 124.54 20.2099C124.31 20.0899 124.13 19.9099 123.99 19.6599L123.48 19.9999C123.71 20.3199 123.98 20.5399 124.3 20.6699C124.62 20.7999 124.97 20.8699 125.35 20.8699C125.58 20.8699 125.81 20.8299 126.03 20.7599C126.25 20.6899 126.44 20.5799 126.6 20.4499C126.77 20.3099 126.9 20.1399 127 19.9399C127.1 19.7399 127.15 19.5099 127.15 19.2499C127.15 18.8899 127.08 18.6099 126.93 18.4099C126.78 18.2099 126.6 18.0499 126.38 17.9299L126.36 17.9399Z" fill="#FEEDB9"/>
<path d="M133.61 15.6799C133.35 15.4099 133.04 15.1999 132.67 15.0499C132.3 14.8999 131.9 14.8199 131.46 14.8199C131.02 14.8199 130.62 14.8999 130.25 15.0499C129.88 15.1999 129.57 15.4099 129.31 15.6799C129.05 15.9499 128.85 16.2699 128.7 16.6399C128.55 17.0099 128.48 17.4099 128.48 17.8599C128.48 18.3099 128.55 18.7099 128.7 19.0799C128.85 19.4499 129.05 19.7699 129.31 20.0399C129.57 20.3099 129.88 20.5199 130.25 20.6699C130.62 20.8199 131.02 20.8899 131.46 20.8899C131.9 20.8899 132.3 20.8199 132.67 20.6699C133.04 20.5199 133.35 20.3099 133.61 20.0399C133.87 19.7699 134.07 19.4499 134.22 19.0799C134.37 18.7099 134.44 18.2999 134.44 17.8599C134.44 17.4199 134.37 17.0099 134.22 16.6399C134.07 16.2699 133.87 15.9499 133.61 15.6799ZM133.73 18.8599C133.62 19.1699 133.45 19.4399 133.24 19.6699C133.03 19.8999 132.77 20.0799 132.47 20.2099C132.17 20.3399 131.83 20.4099 131.45 20.4099C131.07 20.4099 130.74 20.3399 130.43 20.2099C130.13 20.0799 129.87 19.8999 129.66 19.6699C129.45 19.4399 129.28 19.1699 129.17 18.8599C129.06 18.5499 129 18.2199 129 17.8599C129 17.4999 129.06 17.1699 129.17 16.8599C129.28 16.5499 129.45 16.2799 129.66 16.0499C129.87 15.8199 130.13 15.6399 130.43 15.5099C130.73 15.3799 131.07 15.3099 131.45 15.3099C131.83 15.3099 132.16 15.3799 132.47 15.5099C132.77 15.6399 133.03 15.8199 133.24 16.0499C133.45 16.2799 133.62 16.5499 133.73 16.8599C133.84 17.1699 133.9 17.4999 133.9 17.8599C133.9 18.2199 133.84 18.5499 133.73 18.8599Z" fill="#FEEDB9"/>
<path d="M141.73 20.55C142.08 20.43 142.37 20.27 142.6 20.08C142.83 19.89 143.01 19.68 143.15 19.45C143.28 19.22 143.38 19 143.44 18.79C143.5 18.58 143.54 18.39 143.56 18.21C143.58 18.04 143.58 17.92 143.58 17.85C143.58 17.78 143.58 17.66 143.56 17.49C143.54 17.32 143.5 17.13 143.44 16.91C143.38 16.7 143.28 16.48 143.15 16.25C143.02 16.02 142.83 15.81 142.6 15.62C142.37 15.43 142.08 15.27 141.73 15.15C141.38 15.03 140.96 14.97 140.46 14.97H138.67V20.74H140.46C140.96 20.74 141.38 20.68 141.73 20.56V20.55ZM139.21 20.24V15.44H140.32C140.7 15.44 141.06 15.49 141.39 15.58C141.72 15.68 142.01 15.82 142.25 16.02C142.49 16.22 142.69 16.46 142.83 16.77C142.97 17.07 143.04 17.43 143.04 17.84C143.04 18.25 142.97 18.61 142.83 18.91C142.69 19.21 142.5 19.46 142.25 19.66C142.01 19.86 141.72 20 141.39 20.1C141.06 20.2 140.7 20.24 140.32 20.24H139.21Z" fill="#FEEDB9"/>
<path d="M145.82 20.25V18H148.62V17.51H145.82V15.45H148.81V14.96H145.28V20.74H148.94V20.25H145.82Z" fill="#FEEDB9"/>
<path d="M50.6802 28.22H55.5702V41.33H56.9102V28.22H61.8002V27.01H50.6802V28.22Z" fill="#FEEDB9"/>
<path d="M77.1299 27.01L70.8799 41.33H72.2799L73.8999 37.53H81.4799L83.0399 41.33H84.5399L78.5099 27.01H77.1299ZM74.4199 36.31L77.7599 28.46L80.9999 36.31H74.4299H74.4199Z" fill="#FEEDB9"/>
<path d="M98.04 27.01H96.71V41.33H104.72V40.12H98.04V27.01Z" fill="#FEEDB9"/>
<path d="M124.12 27.78C123.67 27.5 123.17 27.3 122.62 27.18C122.07 27.07 121.55 27.01 121.05 27.01H116.92V41.33H118.25V34.54H121.34C121.91 34.54 122.45 34.47 122.97 34.32C123.49 34.17 123.95 33.95 124.34 33.64C124.74 33.34 125.05 32.95 125.29 32.48C125.53 32.01 125.64 31.45 125.64 30.8C125.64 30.06 125.5 29.44 125.2 28.95C124.91 28.46 124.54 28.07 124.09 27.79L124.12 27.78ZM124.07 31.99C123.89 32.31 123.67 32.57 123.38 32.77C123.1 32.97 122.77 33.11 122.41 33.19C122.05 33.28 121.67 33.32 121.3 33.32H118.27V28.22H121.22C121.6 28.22 121.97 28.27 122.35 28.36C122.73 28.45 123.06 28.61 123.35 28.82C123.64 29.03 123.88 29.3 124.06 29.62C124.24 29.94 124.33 30.33 124.33 30.79C124.33 31.25 124.24 31.66 124.07 31.98V31.99Z" fill="#FEEDB9"/>
<path d="M141.54 27.01L135.29 41.33H136.69L138.31 37.53H145.89L147.45 41.33H148.95L142.92 27.01H141.54ZM138.83 36.31L142.17 28.46L145.41 36.31H138.84H138.83Z" fill="#FEEDB9"/>
<path d="M17.9299 31.12C11.0299 31.12 5.41992 36.73 5.41992 43.63C5.41992 50.53 11.0299 56.14 17.9299 56.14C24.8299 56.14 30.4399 50.53 30.4399 43.63C30.4399 36.73 24.8299 31.12 17.9299 31.12ZM17.9299 53.01C12.7599 53.01 8.5499 48.8 8.5499 43.63C8.5499 38.46 12.7599 34.25 17.9299 34.25C23.0999 34.25 27.3099 38.46 27.3099 43.63C27.3099 48.8 23.0999 53.01 17.9299 53.01Z" fill="#FEEDB9"/>
<path d="M34.96 27.1801H0.910004C0.410004 27.1801 0 27.5901 0 28.0901V31.0901C0 31.5901 0.410004 32.0001 0.910004 32.0001H9.23999C9.42999 32.0001 9.60001 31.9401 9.76001 31.8401C12.08 30.2201 14.9 29.2801 17.94 29.2801C20.98 29.2801 23.8 30.2301 26.12 31.8401C26.27 31.9501 26.45 32.0001 26.64 32.0001H34.97C35.47 32.0001 35.88 31.5901 35.88 31.0901V28.0901C35.88 27.5901 35.47 27.1801 34.97 27.1801H34.96Z" fill="#FEEDB9"/>
<path d="M8.6501 25.24H15.1601C16.6401 25.24 17.1201 24.95 17.3201 24.62C17.3601 24.56 17.3801 24.5 17.4001 24.44C17.6901 23.41 15.1001 21.77 11.6001 20.79C8.94011 20.04 6.52012 19.88 5.39012 20.31C5.39012 20.31 2.86012 21.37 1.64012 23.11C0.420122 24.85 2.36012 25.24 8.64012 25.24H8.6501Z" fill="#FEEDB9"/>
<path d="M18.4598 24.44C18.4798 24.5 18.5098 24.56 18.5398 24.62C18.7398 24.94 19.2298 25.24 20.6998 25.24H27.2098C33.4898 25.24 35.4298 24.85 34.2098 23.11C32.9898 21.37 30.4598 20.31 30.4598 20.31C29.3298 19.88 26.9198 20.04 24.2498 20.79C20.7598 21.78 18.1598 23.41 18.4498 24.44H18.4598Z" fill="#FEEDB9"/>
<path d="M16.01 20.07C17.75 20.34 18.4699 18.08 14.4899 15.84C10.5099 13.6 9.27995 15.78 8.52995 17.33C7.77995 18.88 10.33 19.18 16.01 20.07Z" fill="#FEEDB9"/>
<path d="M21.38 15.84C17.4 18.08 18.12 20.34 19.86 20.07C25.54 19.18 28.09 18.88 27.34 17.33C26.59 15.78 25.36 13.6 21.38 15.84Z" fill="#FEEDB9"/>
<path d="M16.8198 13.61C17.3098 13.65 17.7098 13.27 17.7098 12.78C17.7098 10.06 15.6898 8.20001 13.3798 6.47001C10.8398 4.56001 9.01983 6.70001 10.8998 10.26C12.2998 12.91 15.3498 13.49 16.8098 13.61H16.8198Z" fill="#FEEDB9"/>
<path d="M18.1501 12.78C18.1501 13.27 18.5601 13.65 19.0401 13.61C20.5001 13.49 23.5501 12.91 24.9501 10.26C26.8301 6.70002 25.0201 4.57002 22.4701 6.47002C20.1601 8.20002 18.1401 10.06 18.1401 12.78H18.1501Z" fill="#FEEDB9"/>
<path d="M17.2498 7.51C17.6198 7.91 18.2498 7.91 18.6098 7.51L21.3498 4.53C21.6698 4.18 21.6698 3.63 21.3498 3.28L18.6098 0.3C18.2398 -0.1 17.6098 -0.1 17.2498 0.3L14.5198 3.28C14.1998 3.63 14.1998 4.18 14.5198 4.53L17.2598 7.51H17.2498Z" fill="#FEEDB9"/>
</svg>
